<svg xmlns="http://www.w3.org/2000/svg" xmlns:xlink="http://www.w3.org/1999/xlink" width="160" zoomAndPan="magnify" viewBox="0 0 120 119.999999" height="160" preserveAspectRatio="xMidYMid meet" version="1.0"><defs><g/><clipPath id="3817882f6c"><path d="M 39.257812 21.785156 L 77.507812 21.785156 L 77.507812 60 L 39.257812 60 Z M 39.257812 21.785156 " clip-rule="nonzero"/></clipPath><clipPath id="5f9ec50bbe"><path d="M 72 4 L 79.640625 4 L 79.640625 15 L 72 15 Z M 72 4 " clip-rule="nonzero"/></clipPath><clipPath id="2e8da54dc2"><rect x="0" width="80" y="0" height="20"/></clipPath></defs><g clip-path="url(#3817882f6c)"><path fill="#343434" d="M 71.90625 31.59375 L 71.90625 33.773438 L 74.984375 33.773438 L 74.984375 51.285156 L 61.199219 51.285156 C 61.371094 51.125 61.539062 50.960938 61.707031 50.796875 C 66.140625 46.363281 68.578125 40.472656 68.578125 34.203125 C 68.578125 32.011719 68.277344 29.847656 67.683594 27.761719 C 68.382812 27.132812 68.828125 26.222656 68.828125 25.207031 C 68.828125 23.320312 67.289062 21.785156 65.402344 21.785156 C 63.515625 21.785156 61.980469 23.320312 61.980469 25.207031 C 61.980469 27.097656 63.515625 28.632812 65.402344 28.632812 C 65.492188 28.632812 65.574219 28.628906 65.660156 28.621094 C 65.921875 29.597656 66.117188 30.589844 66.242188 31.59375 L 43.476562 31.59375 L 43.476562 49.804688 L 45.65625 49.804688 L 45.65625 33.773438 L 66.398438 33.773438 C 66.398438 33.917969 66.402344 34.058594 66.402344 34.203125 C 66.402344 45.660156 57.300781 55.03125 45.953125 55.46875 C 45.488281 54.125 44.210938 53.15625 42.714844 53.15625 C 40.824219 53.15625 39.289062 54.691406 39.289062 56.578125 C 39.289062 58.464844 40.824219 60 42.714844 60 C 44.226562 60 45.511719 59.011719 45.964844 57.652344 C 50.519531 57.492188 54.847656 56.039062 58.523438 53.464844 L 77.164062 53.464844 L 77.164062 31.59375 Z M 64.160156 25.207031 C 64.160156 24.523438 64.714844 23.964844 65.402344 23.964844 C 66.089844 23.964844 66.648438 24.523438 66.648438 25.207031 C 66.648438 25.894531 66.089844 26.453125 65.402344 26.453125 C 64.714844 26.453125 64.160156 25.894531 64.160156 25.207031 Z M 42.714844 57.820312 C 42.027344 57.820312 41.46875 57.265625 41.46875 56.578125 C 41.46875 55.890625 42.027344 55.332031 42.714844 55.332031 C 43.402344 55.332031 43.957031 55.890625 43.957031 56.578125 C 43.957031 57.265625 43.402344 57.820312 42.714844 57.820312 Z M 42.714844 57.820312 " fill-opacity="1" fill-rule="nonzero"/></g><path fill="#343434" d="M 62.242188 55.09375 L 58.394531 55.09375 L 58.394531 57.273438 L 55.097656 57.273438 L 55.097656 59.449219 L 65.542969 59.449219 L 65.542969 57.273438 L 62.242188 57.273438 Z M 62.242188 55.09375 " fill-opacity="1" fill-rule="nonzero"/><g transform="matrix(1, 0, 0, 1, 19, 61)"><g clip-path="url(#2e8da54dc2)"><g fill="#343434" fill-opacity="1"><g transform="translate(0.651573, 14.509726)"><g><path d="M 5.703125 0.171875 C 4.691406 0.171875 3.804688 -0.046875 3.046875 -0.484375 C 2.296875 -0.929688 1.707031 -1.546875 1.28125 -2.328125 C 0.851562 -3.109375 0.640625 -4.007812 0.640625 -5.03125 C 0.640625 -6.0625 0.851562 -6.96875 1.28125 -7.75 C 1.707031 -8.53125 2.296875 -9.140625 3.046875 -9.578125 C 3.804688 -10.023438 4.691406 -10.25 5.703125 -10.25 C 6.703125 -10.25 7.578125 -10.023438 8.328125 -9.578125 C 9.085938 -9.140625 9.675781 -8.53125 10.09375 -7.75 C 10.519531 -6.96875 10.734375 -6.0625 10.734375 -5.03125 C 10.734375 -4.007812 10.519531 -3.109375 10.09375 -2.328125 C 9.675781 -1.546875 9.085938 -0.929688 8.328125 -0.484375 C 7.578125 -0.046875 6.703125 0.171875 5.703125 0.171875 Z M 5.703125 -1.484375 C 6.660156 -1.484375 7.421875 -1.796875 7.984375 -2.421875 C 8.554688 -3.054688 8.84375 -3.925781 8.84375 -5.03125 C 8.84375 -6.132812 8.554688 -7.003906 7.984375 -7.640625 C 7.421875 -8.273438 6.660156 -8.59375 5.703125 -8.59375 C 4.742188 -8.59375 3.972656 -8.273438 3.390625 -7.640625 C 2.816406 -7.003906 2.53125 -6.132812 2.53125 -5.03125 C 2.53125 -3.925781 2.816406 -3.054688 3.390625 -2.421875 C 3.972656 -1.796875 4.742188 -1.484375 5.703125 -1.484375 Z M 5.703125 -1.484375 "/></g></g></g><g fill="#343434" fill-opacity="1"><g transform="translate(11.145228, 14.509726)"><g><path d="M 0.984375 0 L 0.984375 -10.078125 L 4.671875 -10.078125 C 5.484375 -10.078125 6.148438 -9.9375 6.671875 -9.65625 C 7.191406 -9.382812 7.582031 -9.015625 7.84375 -8.546875 C 8.101562 -8.085938 8.234375 -7.578125 8.234375 -7.015625 C 8.234375 -6.398438 8.070312 -5.835938 7.75 -5.328125 C 7.425781 -4.816406 6.925781 -4.445312 6.25 -4.21875 L 8.328125 0 L 6.21875 0 L 4.34375 -3.96875 L 2.828125 -3.96875 L 2.828125 0 Z M 2.828125 -5.328125 L 4.5625 -5.328125 C 5.175781 -5.328125 5.625 -5.472656 5.90625 -5.765625 C 6.195312 -6.066406 6.34375 -6.460938 6.34375 -6.953125 C 6.34375 -7.429688 6.203125 -7.8125 5.921875 -8.09375 C 5.640625 -8.382812 5.179688 -8.53125 4.546875 -8.53125 L 2.828125 -8.53125 Z M 2.828125 -5.328125 "/></g></g></g><g fill="#343434" fill-opacity="1"><g transform="translate(19.223786, 14.509726)"><g><path d="M 0.984375 0 L 0.984375 -10.078125 L 4.421875 -10.078125 C 5.597656 -10.078125 6.566406 -9.867188 7.328125 -9.453125 C 8.085938 -9.035156 8.648438 -8.445312 9.015625 -7.6875 C 9.390625 -6.9375 9.578125 -6.050781 9.578125 -5.03125 C 9.578125 -4.019531 9.390625 -3.132812 9.015625 -2.375 C 8.648438 -1.625 8.085938 -1.039062 7.328125 -0.625 C 6.566406 -0.207031 5.597656 0 4.421875 0 Z M 2.828125 -1.578125 L 4.328125 -1.578125 C 5.171875 -1.578125 5.835938 -1.710938 6.328125 -1.984375 C 6.816406 -2.265625 7.164062 -2.660156 7.375 -3.171875 C 7.59375 -3.679688 7.703125 -4.300781 7.703125 -5.03125 C 7.703125 -5.75 7.59375 -6.367188 7.375 -6.890625 C 7.164062 -7.410156 6.816406 -7.804688 6.328125 -8.078125 C 5.835938 -8.359375 5.171875 -8.5 4.328125 -8.5 L 2.828125 -8.5 Z M 2.828125 -1.578125 "/></g></g></g><g fill="#343434" fill-opacity="1"><g transform="translate(28.567398, 14.509726)"><g><path d="M 0.984375 0 L 0.984375 -10.078125 L 2.828125 -10.078125 L 2.828125 0 Z M 0.984375 0 "/></g></g></g><g fill="#343434" fill-opacity="1"><g transform="translate(31.485139, 14.509726)"><g><path d="M 0.59375 -6.53125 L 1.375 -10.078125 L 3.328125 -10.078125 L 1.859375 -6.53125 Z M 0.59375 -6.53125 "/></g></g></g><g fill="#343434" fill-opacity="1"><g transform="translate(34.40288, 14.509726)"><g><path d="M 4.421875 0.171875 C 3.679688 0.171875 3.023438 0.046875 2.453125 -0.203125 C 1.890625 -0.460938 1.445312 -0.828125 1.125 -1.296875 C 0.800781 -1.773438 0.632812 -2.351562 0.625 -3.03125 L 2.5625 -3.03125 C 2.582031 -2.5625 2.75 -2.164062 3.0625 -1.84375 C 3.382812 -1.519531 3.832031 -1.359375 4.40625 -1.359375 C 4.894531 -1.359375 5.28125 -1.476562 5.5625 -1.71875 C 5.851562 -1.957031 6 -2.269531 6 -2.65625 C 6 -3.070312 5.867188 -3.394531 5.609375 -3.625 C 5.359375 -3.851562 5.019531 -4.039062 4.59375 -4.1875 C 4.175781 -4.332031 3.726562 -4.484375 3.25 -4.640625 C 2.476562 -4.910156 1.882812 -5.253906 1.46875 -5.671875 C 1.0625 -6.097656 0.859375 -6.664062 0.859375 -7.375 C 0.847656 -7.96875 0.988281 -8.476562 1.28125 -8.90625 C 1.582031 -9.332031 1.984375 -9.660156 2.484375 -9.890625 C 2.992188 -10.128906 3.582031 -10.25 4.25 -10.25 C 4.914062 -10.25 5.503906 -10.128906 6.015625 -9.890625 C 6.535156 -9.648438 6.941406 -9.3125 7.234375 -8.875 C 7.523438 -8.445312 7.679688 -7.9375 7.703125 -7.34375 L 5.734375 -7.34375 C 5.722656 -7.695312 5.582031 -8.007812 5.3125 -8.28125 C 5.050781 -8.550781 4.6875 -8.6875 4.21875 -8.6875 C 3.8125 -8.695312 3.472656 -8.597656 3.203125 -8.390625 C 2.929688 -8.191406 2.796875 -7.894531 2.796875 -7.5 C 2.796875 -7.164062 2.898438 -6.898438 3.109375 -6.703125 C 3.316406 -6.503906 3.601562 -6.335938 3.96875 -6.203125 C 4.332031 -6.066406 4.75 -5.921875 5.21875 -5.765625 C 5.71875 -5.597656 6.171875 -5.398438 6.578125 -5.171875 C 6.992188 -4.941406 7.328125 -4.632812 7.578125 -4.25 C 7.828125 -3.875 7.953125 -3.390625 7.953125 -2.796875 C 7.953125 -2.265625 7.816406 -1.769531 7.546875 -1.3125 C 7.285156 -0.863281 6.890625 -0.503906 6.359375 -0.234375 C 5.828125 0.0351562 5.179688 0.171875 4.421875 0.171875 Z M 4.421875 0.171875 "/></g></g></g><g fill="#343434" fill-opacity="1"><g transform="translate(42.107677, 14.509726)"><g><path d="M 0.984375 0 L 0.984375 -10.078125 L 2.828125 -10.078125 L 2.828125 0 Z M 0.984375 0 "/></g></g></g><g fill="#343434" fill-opacity="1"><g transform="translate(45.025419, 14.509726)"><g><path d="M 0.984375 0 L 0.984375 -10.078125 L 3.171875 -10.078125 L 6.375 -3.6875 L 9.546875 -10.078125 L 11.734375 -10.078125 L 11.734375 0 L 9.890625 0 L 9.890625 -6.953125 L 7.078125 -1.4375 L 5.625 -1.4375 L 2.828125 -6.953125 L 2.828125 0 Z M 0.984375 0 "/></g></g></g><g fill="#343434" fill-opacity="1"><g transform="translate(56.841622, 14.509726)"><g><path d="M 0.984375 0 L 0.984375 -10.078125 L 4.703125 -10.078125 C 5.515625 -10.078125 6.179688 -9.941406 6.703125 -9.671875 C 7.234375 -9.398438 7.628906 -9.03125 7.890625 -8.5625 C 8.148438 -8.09375 8.28125 -7.566406 8.28125 -6.984375 C 8.28125 -6.421875 8.15625 -5.90625 7.90625 -5.4375 C 7.65625 -4.976562 7.265625 -4.609375 6.734375 -4.328125 C 6.203125 -4.046875 5.523438 -3.90625 4.703125 -3.90625 L 2.828125 -3.90625 L 2.828125 0 Z M 2.828125 -5.390625 L 4.59375 -5.390625 C 5.238281 -5.390625 5.703125 -5.53125 5.984375 -5.8125 C 6.265625 -6.101562 6.40625 -6.492188 6.40625 -6.984375 C 6.40625 -7.484375 6.265625 -7.875 5.984375 -8.15625 C 5.703125 -8.4375 5.238281 -8.578125 4.59375 -8.578125 L 2.828125 -8.578125 Z M 2.828125 -5.390625 "/></g></g></g><g fill="#343434" fill-opacity="1"><g transform="translate(64.690172, 14.509726)"><g><path d="M 0.984375 0 L 0.984375 -10.078125 L 2.828125 -10.078125 L 2.828125 -1.4375 L 7.28125 -1.4375 L 7.28125 0 Z M 0.984375 0 "/></g></g></g><g clip-path="url(#5f9ec50bbe)"><g fill="#343434" fill-opacity="1"><g transform="translate(71.733695, 14.509726)"><g><path d="M 0.984375 0 L 0.984375 -10.078125 L 7.5625 -10.078125 L 7.5625 -8.59375 L 2.828125 -8.59375 L 2.828125 -5.828125 L 7.125 -5.828125 L 7.125 -4.390625 L 2.828125 -4.390625 L 2.828125 -1.484375 L 7.5625 -1.484375 L 7.5625 0 Z M 0.984375 0 "/></g></g></g></g></g></g></svg>